<?xml version="1.0" encoding="UTF-8"?>
<svg id="Layer_1" data-name="Layer 1" xmlns="http://www.w3.org/2000/svg" viewBox="0 0 228 228">
  <defs>
    <style>
      .cls-1 {
        fill: #fff;
        stroke-width: 0px;
      }
    </style>
  </defs>
  <path class="cls-1" d="M104.33,77.05l-35.39-4.88,12.33-12.33,76.28,10.62,10.62,76.28-12.33,12.33-4.88-35.39-4.27-32.1-72.86,72.86-10.01-10.01,73.1-73.1c-6.34-.81-17.21-2.24-32.58-4.27Z"/>
  <path class="cls-1" d="M114,228C51.14,228,0,176.86,0,114S51.14,0,114,0s114,51.14,114,114-51.14,114-114,114ZM114,12C57.76,12,12,57.76,12,114s45.76,102,102,102,102-45.76,102-102S170.24,12,114,12Z"/>
</svg>
