<?xml version="1.0" encoding="UTF-8"?>
<svg id="uuid-8303767e-31a4-4fa9-8672-c6d34fbddac6" data-name="Layer 1" xmlns="http://www.w3.org/2000/svg" viewBox="0 0 189.93 61.35">
  <defs>
    <style>
      .uuid-3a82b9d6-e660-4109-b291-9d7163bce1ad {
        fill: #fff;
        stroke-width: 0px;
      }
    </style>
  </defs>
  <path class="uuid-3a82b9d6-e660-4109-b291-9d7163bce1ad" d="M189.93,61.35H60.6V0h129.33v61.35ZM61.35,60.6h127.83V.75H61.35v59.85Z"/>
  <path class="uuid-3a82b9d6-e660-4109-b291-9d7163bce1ad" d="M189.93,21.51H60.6V0h129.33v21.51ZM61.35,20.76h127.83V.75H61.35v20.01Z"/>
  <path class="uuid-3a82b9d6-e660-4109-b291-9d7163bce1ad" d="M61.35,61.35H0V0h61.35v61.35ZM.75,60.6h59.85V.75H.75v59.85Z"/>
  <path class="uuid-3a82b9d6-e660-4109-b291-9d7163bce1ad" d="M125.26,59.14c-30.5,0-55.32-7.87-55.32-17.55s24.82-17.55,55.32-17.55,55.32,7.87,55.32,17.55-24.82,17.55-55.32,17.55ZM125.26,24.79c-30.09,0-54.57,7.54-54.57,16.8s24.48,16.8,54.57,16.8,54.57-7.54,54.57-16.8-24.48-16.8-54.57-16.8Z"/>
  <path class="uuid-3a82b9d6-e660-4109-b291-9d7163bce1ad" d="M125.26,59.14c-19.23,0-34.88-7.87-34.88-17.55s15.65-17.55,34.88-17.55,34.88,7.87,34.88,17.55-15.65,17.55-34.88,17.55ZM125.26,24.79c-18.82,0-34.13,7.54-34.13,16.8s15.31,16.8,34.13,16.8,34.13-7.54,34.13-16.8-15.31-16.8-34.13-16.8Z"/>
  <rect class="uuid-3a82b9d6-e660-4109-b291-9d7163bce1ad" x="124.89" y="24.41" width=".75" height="34.35"/>
  <path class="uuid-3a82b9d6-e660-4109-b291-9d7163bce1ad" d="M125.26,59.14c-24.73,0-44.84-7.87-44.84-17.55s20.12-17.55,44.84-17.55,44.84,7.87,44.84,17.55-20.12,17.55-44.84,17.55ZM125.26,24.79c-24.31,0-44.09,7.54-44.09,16.8s19.78,16.8,44.09,16.8,44.09-7.54,44.09-16.8-19.78-16.8-44.09-16.8Z"/>
  <path class="uuid-3a82b9d6-e660-4109-b291-9d7163bce1ad" d="M125.26,59.14c-12.48,0-22.62-7.87-22.62-17.55s10.15-17.55,22.62-17.55,22.62,7.87,22.62,17.55-10.15,17.55-22.62,17.55ZM125.26,24.79c-12.06,0-21.88,7.54-21.88,16.8s9.81,16.8,21.88,16.8,21.88-7.54,21.88-16.8-9.81-16.8-21.88-16.8Z"/>
  <rect class="uuid-3a82b9d6-e660-4109-b291-9d7163bce1ad" x="70.32" y="41.22" width="109.89" height=".75"/>
  <path class="uuid-3a82b9d6-e660-4109-b291-9d7163bce1ad" d="M78.49,14.48l3.19-9.44h2.34v.27c-.43,0-.73.03-.92.08-.18.05-.3.14-.36.27-.06.13-.08.33-.08.62v7.99c0,.29.03.5.08.62.06.13.18.22.36.27.18.05.49.08.92.08v.27h-3.44v-.27c.43,0,.73-.03.92-.08.18-.05.3-.14.36-.27.06-.13.08-.33.08-.62V5.8h-.04l-3.4,9.98h-.35l-3.31-9.84h-.04v8.34c0,.29.03.5.08.62.06.13.18.22.36.27.18.05.49.08.92.08v.27h-3.17v-.27c.43,0,.73-.03.92-.08s.3-.14.36-.27c.06-.13.09-.33.09-.62v-7.99c0-.29-.03-.5-.09-.62s-.18-.22-.36-.27-.49-.08-.92-.08v-.27h2.36l3.13,9.44h.01Z"/>
  <path class="uuid-3a82b9d6-e660-4109-b291-9d7163bce1ad" d="M87.89,15.36c-.16-.24-.24-.59-.24-1.05v-.55c-.18.65-.43,1.13-.75,1.47-.31.33-.68.5-1.1.5s-.75-.15-.98-.44c-.24-.29-.35-.65-.35-1.08,0-.47.14-.88.41-1.24s.61-.65,1-.89c.39-.24.89-.51,1.51-.82l.26-.13v-.75c0-.55-.09-.95-.28-1.19-.19-.24-.46-.37-.83-.37-.3,0-.54.07-.73.21-.19.14-.28.33-.28.56,0,.12.04.25.1.39.05.14.08.24.08.31,0,.13-.04.24-.12.32-.08.08-.18.12-.31.12-.16,0-.28-.07-.37-.2-.09-.13-.14-.31-.14-.52,0-.46.18-.85.54-1.16.36-.31.81-.46,1.34-.46s.91.16,1.21.48c.3.32.45.81.45,1.47v4.03c0,.34.03.57.1.7.07.13.17.19.29.19.31,0,.48-.38.48-1.14h.27c-.02,1.06-.32,1.58-.92,1.58-.29,0-.51-.12-.67-.36ZM85.38,14.8c.14.2.35.29.61.29.32,0,.63-.16.92-.48.29-.32.54-.82.74-1.51v-1.58c-.56.29-1,.53-1.32.73-.32.2-.59.45-.82.75-.23.3-.35.65-.35,1.04,0,.31.07.56.22.75Z"/>
  <path class="uuid-3a82b9d6-e660-4109-b291-9d7163bce1ad" d="M89.65,5.04h1.45l.14.14v9.09c0,.29.02.5.05.63.03.13.11.22.22.27.11.05.3.07.55.07v.27h-2.34v-.27c.26,0,.45-.02.56-.07.11-.05.19-.14.23-.27.04-.13.06-.34.06-.63v-7.99c0-.29-.02-.5-.07-.63-.04-.13-.13-.22-.25-.27-.13-.05-.33-.07-.61-.07v-.27ZM94.54,15.09c.17.1.4.15.69.15v.27h-2.38v-.27c.26,0,.44-.01.54-.03.1-.02.14-.07.14-.15,0-.04-.02-.11-.07-.2-.04-.09-.09-.17-.13-.25-.04-.07-.08-.13-.1-.16l-1.68-2.91,1.47-1.9c.15-.18.22-.33.22-.45,0-.19-.23-.29-.69-.29v-.27h2.42v.27c-.31,0-.55.04-.75.13-.19.09-.41.28-.64.58l-1.37,1.75,1.79,3.08c.19.33.37.55.54.65Z"/>
  <path class="uuid-3a82b9d6-e660-4109-b291-9d7163bce1ad" d="M97.17,14.9c.04.13.12.22.23.27.11.05.3.07.56.07v.27h-2.36v-.27c.26,0,.45-.02.56-.07.11-.05.19-.14.23-.27.04-.13.06-.34.06-.63v-4.39c0-.3-.02-.51-.06-.64-.04-.13-.12-.22-.24-.27s-.32-.07-.59-.07v-.27h1.39l.16.16v5.49c0,.29.02.5.06.63ZM95.98,5.93h1.3v1.17h-1.3v-1.17Z"/>
  <path class="uuid-3a82b9d6-e660-4109-b291-9d7163bce1ad" d="M98.61,15.24c.25,0,.44-.02.55-.07.11-.05.19-.14.23-.27s.06-.34.06-.63v-4.39c0-.3-.02-.51-.07-.64-.04-.13-.13-.22-.25-.27-.13-.05-.33-.07-.61-.07v-.27h1.43l.17.16v.86h.04c.31-.41.61-.72.89-.92.28-.2.6-.31.96-.31.45,0,.77.16.98.46.21.31.31.74.31,1.28v4.11c0,.29.02.5.06.63s.12.22.23.27c.11.05.3.07.55.07v.27h-2.3v-.27c.25,0,.44-.02.55-.07.11-.05.19-.14.22-.27s.05-.34.05-.63v-4.07c0-.39-.08-.69-.23-.88-.15-.19-.37-.29-.65-.29-.3,0-.58.09-.84.27-.26.18-.54.44-.83.77v4.19c0,.29.02.5.05.63.03.13.11.22.22.27.11.05.3.07.55.07v.27h-2.33v-.27Z"/>
  <path class="uuid-3a82b9d6-e660-4109-b291-9d7163bce1ad" d="M104.92,18.2c-.45-.27-.67-.66-.67-1.19,0-.38.12-.72.36-.99.24-.28.56-.53.96-.76-.47-.17-.71-.48-.71-.96,0-.24.07-.45.21-.65s.34-.41.62-.64c-.25-.23-.44-.52-.58-.88s-.21-.75-.21-1.18c0-.49.09-.92.26-1.3.17-.38.41-.68.73-.9.31-.22.67-.33,1.07-.33s.77.11,1.09.33c.48-.24,1.07-.37,1.78-.37v.65c-.24,0-.56-.02-.96-.07-.3-.03-.49-.04-.59-.03.24.23.42.51.54.86s.19.73.19,1.15c0,.49-.08.93-.25,1.31-.17.38-.41.68-.73.9-.31.21-.67.32-1.07.32-.38,0-.72-.1-1.02-.29-.17.16-.3.3-.39.43-.09.13-.13.26-.13.4,0,.16.02.28.07.38.05.1.17.17.36.24.19.06.48.09.88.09h1.34c.68,0,1.17.09,1.45.28s.43.52.43.99c0,.44-.14.86-.43,1.26s-.69.73-1.2.98c-.51.25-1.09.37-1.72.37-.67,0-1.23-.13-1.67-.4ZM105.32,17.66c.33.23.81.35,1.43.35.54,0,1.02-.09,1.43-.26.41-.17.73-.4.96-.68.22-.28.33-.57.33-.86,0-.31-.11-.53-.31-.63-.21-.11-.58-.16-1.11-.16h-1.36c-.3,0-.54-.02-.72-.05-.76.47-1.14.96-1.14,1.45,0,.34.17.63.5.86ZM105.96,12.34c.25.49.63.73,1.14.73.4,0,.7-.16.91-.48.2-.32.31-.75.31-1.28,0-.65-.13-1.22-.39-1.72s-.63-.75-1.12-.75c-.4,0-.71.18-.92.54-.21.36-.31.79-.31,1.31,0,.62.13,1.17.38,1.66Z"/>
  <path class="uuid-3a82b9d6-e660-4109-b291-9d7163bce1ad" d="M112.93,18.35c-.18-.14-.27-.31-.27-.53,0-.12.04-.23.12-.31.08-.08.18-.12.3-.12s.22.03.29.1.14.15.2.27c.06.1.12.18.18.22.06.04.13.06.23.06.2,0,.39-.16.57-.46.18-.31.36-.77.53-1.39.08-.27.12-.57.12-.9l-1.65-5.45c-.11-.38-.24-.63-.37-.75s-.35-.17-.65-.17v-.27h2.42v.27c-.3,0-.5.02-.62.07-.11.04-.17.13-.17.26,0,.1.04.3.13.59l1.27,4.46h.05l1.19-4.45c.08-.31.12-.51.12-.58,0-.14-.06-.23-.17-.28s-.32-.07-.63-.07v-.27h2.03v.27c-.27,0-.46.06-.58.18-.12.12-.23.37-.33.75l-1.53,5.49c-.19.71-.37,1.28-.54,1.73-.17.44-.38.81-.63,1.09-.25.28-.55.42-.91.42-.28,0-.51-.07-.69-.2Z"/>
  <path class="uuid-3a82b9d6-e660-4109-b291-9d7163bce1ad" d="M119.28,15.24c-.37-.32-.65-.75-.86-1.3s-.31-1.17-.31-1.85.1-1.3.29-1.86c.19-.56.47-1,.84-1.33.37-.33.8-.49,1.3-.49.46,0,.88.16,1.24.48.37.32.65.75.86,1.3s.31,1.17.31,1.85-.1,1.3-.29,1.86c-.19.56-.47,1-.83,1.33-.36.33-.79.49-1.29.49s-.89-.16-1.26-.48ZM119.04,13.71c.14.48.34.87.6,1.15.26.28.56.43.9.43.54,0,.96-.31,1.26-.93.3-.62.44-1.39.44-2.32,0-.59-.07-1.13-.21-1.62s-.34-.87-.6-1.15c-.26-.28-.56-.43-.9-.43-.54,0-.96.31-1.26.92-.3.62-.45,1.39-.45,2.32,0,.59.07,1.13.21,1.62Z"/>
  <path class="uuid-3a82b9d6-e660-4109-b291-9d7163bce1ad" d="M127.41,14.53h-.04c-.22.34-.49.62-.82.85-.33.23-.67.34-1.04.34-.41,0-.72-.16-.92-.46-.2-.31-.3-.73-.3-1.28v-4.11c0-.29-.02-.5-.07-.63-.04-.13-.13-.22-.25-.27-.13-.05-.33-.07-.61-.07v-.27h1.44l.14.14v5.13c0,.8.27,1.2.81,1.2.28,0,.56-.1.86-.29.29-.19.56-.44.79-.73v-4.22c0-.29-.02-.5-.07-.63-.04-.13-.13-.22-.26-.27-.13-.05-.33-.07-.61-.07v-.27h1.45l.14.14v5.47c0,.31.01.52.03.63.02.1.08.16.19.16.11,0,.3-.06.55-.17l.12.26-1.02.44-.35.14-.16-.14-.03-1.03Z"/>
  <path class="uuid-3a82b9d6-e660-4109-b291-9d7163bce1ad" d="M133.7,14.9c.04.13.12.22.23.27.11.05.3.07.56.07v.27h-2.37v-.27c.26,0,.45-.02.56-.07.11-.05.19-.14.23-.27.04-.13.06-.34.06-.63v-7.99c0-.29-.02-.5-.07-.63-.04-.13-.13-.22-.26-.27-.13-.05-.33-.07-.61-.07v-.27h1.45l.14.14v9.09c0,.29.02.5.06.63Z"/>
  <path class="uuid-3a82b9d6-e660-4109-b291-9d7163bce1ad" d="M136.26,15.24c-.37-.32-.65-.75-.86-1.3s-.31-1.17-.31-1.85.1-1.3.29-1.86c.19-.56.47-1,.84-1.33.37-.33.8-.49,1.3-.49.46,0,.88.16,1.24.48.37.32.65.75.86,1.3s.31,1.17.31,1.85-.1,1.3-.29,1.86c-.19.56-.47,1-.83,1.33-.36.33-.79.49-1.29.49s-.89-.16-1.26-.48ZM136.02,13.71c.14.48.34.87.6,1.15.26.28.56.43.9.43.54,0,.96-.31,1.26-.93.3-.62.44-1.39.44-2.32,0-.59-.07-1.13-.21-1.62s-.34-.87-.6-1.15c-.26-.28-.56-.43-.9-.43-.54,0-.96.31-1.26.92-.3.62-.45,1.39-.45,2.32,0,.59.07,1.13.21,1.62Z"/>
  <path class="uuid-3a82b9d6-e660-4109-b291-9d7163bce1ad" d="M142.04,15.24c-.37-.32-.65-.75-.86-1.3s-.31-1.17-.31-1.85.1-1.3.29-1.86c.19-.56.47-1,.84-1.33.37-.33.8-.49,1.3-.49.46,0,.88.16,1.24.48.37.32.65.75.86,1.3s.31,1.17.31,1.85-.1,1.3-.29,1.86c-.19.56-.47,1-.83,1.33-.36.33-.79.49-1.29.49s-.89-.16-1.26-.48ZM141.81,13.71c.14.48.34.87.6,1.15.26.28.56.43.9.43.54,0,.96-.31,1.26-.93.3-.62.44-1.39.44-2.32,0-.59-.07-1.13-.21-1.62s-.34-.87-.6-1.15c-.26-.28-.56-.43-.9-.43-.54,0-.96.31-1.26.92-.3.62-.45,1.39-.45,2.32,0,.59.07,1.13.21,1.62Z"/>
  <path class="uuid-3a82b9d6-e660-4109-b291-9d7163bce1ad" d="M146.21,5.04h1.45l.14.14v9.09c0,.29.02.5.05.63s.11.22.22.27c.11.05.3.07.55.07v.27h-2.34v-.27c.26,0,.45-.02.56-.07.11-.05.19-.14.23-.27.04-.13.06-.34.06-.63v-7.99c0-.29-.02-.5-.07-.63-.04-.13-.13-.22-.26-.27-.13-.05-.33-.07-.61-.07v-.27ZM151.1,15.09c.17.1.4.15.69.15v.27h-2.38v-.27c.26,0,.44-.01.54-.03.1-.02.14-.07.14-.15,0-.04-.02-.11-.07-.2s-.09-.17-.13-.25c-.04-.07-.08-.13-.1-.16l-1.68-2.91,1.47-1.9c.15-.18.22-.33.22-.45,0-.19-.23-.29-.69-.29v-.27h2.42v.27c-.31,0-.55.04-.75.13-.19.09-.41.28-.64.58l-1.38,1.75,1.79,3.08c.19.33.37.55.54.65Z"/>
  <path class="uuid-3a82b9d6-e660-4109-b291-9d7163bce1ad" d="M155.21,18.2c-.45-.27-.67-.66-.67-1.19,0-.38.12-.72.36-.99.24-.28.56-.53.96-.76-.47-.17-.71-.48-.71-.96,0-.24.07-.45.21-.65s.34-.41.62-.64c-.24-.23-.44-.52-.58-.88s-.21-.75-.21-1.18c0-.49.08-.92.25-1.3.17-.38.41-.68.73-.9.31-.22.67-.33,1.07-.33s.77.11,1.09.33c.48-.24,1.07-.37,1.78-.37v.65c-.24,0-.56-.02-.96-.07-.3-.03-.49-.04-.59-.03.24.23.42.51.54.86.13.34.19.73.19,1.15,0,.49-.08.93-.25,1.31-.17.38-.41.68-.73.9-.31.21-.67.32-1.07.32-.38,0-.72-.1-1.02-.29-.17.16-.31.3-.39.43-.09.13-.13.26-.13.4,0,.16.02.28.07.38.05.1.17.17.36.24.19.06.48.09.88.09h1.33c.68,0,1.17.09,1.45.28.29.19.43.52.43.99,0,.44-.14.86-.43,1.26-.29.4-.69.73-1.2.98-.51.25-1.08.37-1.72.37-.67,0-1.23-.13-1.68-.4ZM155.62,17.66c.33.23.81.35,1.43.35.54,0,1.02-.09,1.43-.26.41-.17.73-.4.96-.68.22-.28.33-.57.33-.86,0-.31-.1-.53-.31-.63-.21-.11-.58-.16-1.11-.16h-1.36c-.3,0-.54-.02-.72-.05-.76.47-1.14.96-1.14,1.45,0,.34.17.63.5.86ZM156.26,12.34c.25.49.63.73,1.14.73.4,0,.7-.16.91-.48.2-.32.31-.75.31-1.28,0-.65-.13-1.22-.39-1.72s-.63-.75-1.12-.75c-.4,0-.71.18-.92.54-.21.36-.31.79-.31,1.31,0,.62.13,1.17.38,1.66Z"/>
  <path class="uuid-3a82b9d6-e660-4109-b291-9d7163bce1ad" d="M161.58,15.24c-.37-.32-.65-.75-.86-1.3s-.31-1.17-.31-1.85.1-1.3.29-1.86c.19-.56.47-1,.84-1.33.37-.33.8-.49,1.3-.49.46,0,.88.16,1.24.48.37.32.65.75.86,1.3s.31,1.17.31,1.85-.1,1.3-.29,1.86c-.19.56-.47,1-.83,1.33-.36.33-.79.49-1.29.49s-.89-.16-1.26-.48ZM161.34,13.71c.14.48.34.87.6,1.15.26.28.56.43.9.43.54,0,.96-.31,1.26-.93.3-.62.44-1.39.44-2.32,0-.59-.07-1.13-.21-1.62s-.34-.87-.6-1.15c-.26-.28-.56-.43-.9-.43-.54,0-.96.31-1.26.92-.3.62-.45,1.39-.45,2.32,0,.59.07,1.13.21,1.62Z"/>
  <path class="uuid-3a82b9d6-e660-4109-b291-9d7163bce1ad" d="M167.36,15.24c-.37-.32-.65-.75-.86-1.3s-.31-1.17-.31-1.85.1-1.3.29-1.86c.19-.56.47-1,.84-1.33.37-.33.8-.49,1.3-.49.46,0,.88.16,1.24.48.37.32.65.75.86,1.3s.31,1.17.31,1.85-.1,1.3-.29,1.86c-.19.56-.47,1-.83,1.33-.36.33-.79.49-1.29.49s-.89-.16-1.26-.48ZM167.13,13.71c.14.48.34.87.6,1.15.26.28.56.43.9.43.54,0,.96-.31,1.26-.93.3-.62.44-1.39.44-2.32,0-.59-.07-1.13-.21-1.62s-.34-.87-.6-1.15c-.26-.28-.56-.43-.9-.43-.54,0-.96.31-1.26.92-.3.62-.45,1.39-.45,2.32,0,.59.07,1.13.21,1.62Z"/>
  <path class="uuid-3a82b9d6-e660-4109-b291-9d7163bce1ad" d="M173.87,15.72c-.6,0-1.07-.33-1.39-.98-.33-.65-.49-1.48-.49-2.49,0-.7.08-1.34.25-1.92.17-.58.41-1.05.74-1.39.33-.34.72-.52,1.17-.52.63,0,1.09.24,1.39.72h.01v-2.85c0-.29-.02-.5-.07-.63-.04-.13-.13-.22-.26-.27s-.34-.07-.64-.07v-.27h1.51l.13.14v9.06c0,.31.01.52.03.63.02.1.08.16.19.16.1,0,.28-.06.55-.18l.1.26-1.01.46-.37.16-.17-.16v-1.03h-.05c-.35.79-.89,1.19-1.62,1.19ZM173.05,14.24c.23.58.57.86,1.03.86.32,0,.6-.1.82-.31s.44-.5.65-.86v-2.63c0-.72-.12-1.3-.35-1.74s-.56-.65-.98-.65c-.52,0-.9.3-1.14.9s-.37,1.33-.37,2.19c0,.93.12,1.68.35,2.25Z"/>
  <path class="uuid-3a82b9d6-e660-4109-b291-9d7163bce1ad" d="M180.65,14.35h1.17v1.17h-1.17v-1.17ZM181.59,7.19c-.11,1.77-.18,3.7-.2,5.79h-.31c-.02-1.93-.09-3.86-.21-5.8-.06-.95-.09-1.66-.09-2.13h.89c0,.33-.03,1.05-.08,2.15Z"/>
  <path class="uuid-3a82b9d6-e660-4109-b291-9d7163bce1ad" d="M9.2,17.95c-.08-.09-.11-.21-.11-.36,0-.14.02-.27.06-.4.04-.13.06-.2.07-.23.07-.21.12-.4.16-.57s.06-.38.07-.64c-.36.23-.68.5-.95.8l-.17.17c-.09.09-.2.17-.31.24-.09.06-.19.09-.29.09-.14,0-.26-.07-.36-.2-.03-.07-.05-.14-.05-.22,0-.15.09-.29.28-.41.14-.08.33-.14.57-.18.21-.04.41-.09.58-.15.17-.06.38-.15.62-.27-.38-.21-.78-.36-1.2-.45-.27-.07-.46-.13-.57-.19-.19-.11-.28-.24-.28-.39,0-.08.02-.16.05-.22.09-.14.21-.22.36-.22.1,0,.2.03.29.09.13.08.28.22.47.42.14.17.28.32.42.44.14.12.32.25.55.39,0-.27-.03-.5-.07-.67s-.1-.37-.17-.59c-.03-.1-.06-.2-.09-.31-.03-.1-.04-.2-.04-.29,0-.15.04-.27.11-.36.08-.09.18-.13.32-.13.13,0,.23.04.31.13.08.09.11.21.11.36,0,.18-.04.38-.13.61-.07.21-.12.41-.15.59-.03.18-.06.4-.06.66.22-.14.4-.27.53-.39.13-.12.27-.27.43-.44.17-.2.32-.33.46-.42.09-.06.19-.09.29-.09.14,0,.26.07.36.22.03.06.05.13.05.22,0,.15-.09.28-.28.39-.11.06-.3.12-.57.19-.42.08-.81.23-1.2.45.24.13.44.22.62.27s.37.1.58.15c.25.04.44.1.57.18.19.12.28.25.28.41,0,.08-.02.15-.05.22-.09.14-.21.2-.36.2-.1,0-.2-.03-.29-.09-.12-.08-.27-.21-.46-.41-.14-.15-.27-.29-.41-.41-.14-.12-.32-.25-.55-.39.02.41.09.81.22,1.21.08.24.13.45.13.62,0,.15-.04.27-.11.36-.08.09-.18.13-.31.13-.14,0-.24-.04-.32-.13Z"/>
  <path class="uuid-3a82b9d6-e660-4109-b291-9d7163bce1ad" d="M17.72,22.59l3.11-9.18h2.28v.27c-.42,0-.71.03-.89.08-.18.05-.29.14-.35.26-.06.12-.08.32-.08.6v7.77c0,.28.03.48.08.6.06.12.17.21.35.26s.48.08.89.08v.27h-3.35v-.27c.42,0,.71-.03.89-.08s.29-.14.35-.26.08-.32.08-.6v-8.24h-.04l-3.31,9.7h-.34l-3.22-9.57h-.04v8.11c0,.28.03.48.08.6s.17.21.35.26.48.08.89.08v.27h-3.08v-.27c.42,0,.71-.03.89-.08s.29-.14.35-.26c.05-.12.08-.32.08-.6v-7.77c0-.28-.03-.48-.08-.6-.06-.12-.17-.21-.35-.26-.18-.05-.48-.08-.89-.08v-.27h2.29l3.04,9.18h.01Z"/>
  <path class="uuid-3a82b9d6-e660-4109-b291-9d7163bce1ad" d="M27.87,22.99c.06.12.17.21.35.26s.48.08.89.08v.27h-3.35v-.27c.42,0,.71-.03.89-.08s.29-.14.35-.26.08-.32.08-.6v-3.27l-2.29-4.62c-.17-.34-.34-.56-.52-.66-.17-.1-.45-.15-.82-.15v-.27h3.07v.27c-.44,0-.74.02-.9.05-.16.03-.24.11-.24.22,0,.09.07.28.22.55l1.96,4.02h.04l1.81-4c.05-.12.1-.23.14-.33.04-.1.06-.18.06-.24,0-.11-.07-.18-.22-.22-.14-.03-.42-.05-.81-.05v-.27h2.61v.27c-.37,0-.65.05-.82.15-.17.1-.34.33-.49.67l-2.09,4.6v3.28c0,.28.03.48.08.6Z"/>
  <path class="uuid-3a82b9d6-e660-4109-b291-9d7163bce1ad" d="M34.9,13.68c-.42,0-.71.03-.89.08-.18.05-.3.14-.35.26-.06.12-.08.32-.08.6v7.79c0,.31.04.52.12.61.08.09.25.14.52.14h2.18c.3,0,.52-.06.68-.18.16-.12.3-.37.43-.75.13-.38.29-1.01.46-1.87l.27.05-.61,3.02-.04.17h-6.03v-.27c.42,0,.71-.03.89-.08s.29-.14.35-.26c.05-.12.08-.32.08-.6v-7.77c0-.28-.03-.48-.08-.6-.06-.12-.17-.21-.35-.26-.18-.05-.48-.08-.89-.08v-.27h3.35v.27Z"/>
  <path class="uuid-3a82b9d6-e660-4109-b291-9d7163bce1ad" d="M40.5,23.11c-.62-.46-1.08-1.09-1.39-1.9-.31-.8-.46-1.7-.46-2.71s.16-1.9.47-2.71c.31-.8.77-1.43,1.37-1.9.6-.46,1.32-.69,2.16-.69.43,0,.82.06,1.15.18.34.12.66.32.97.6.09.08.17.11.22.11.1,0,.16-.08.17-.23l.05-.53h.27l.18,3.53h-.27c-.16-1.07-.46-1.88-.9-2.42-.44-.54-1.05-.81-1.83-.81-.7,0-1.29.21-1.78.64-.49.42-.86,1-1.1,1.73s-.37,1.55-.37,2.46.13,1.77.39,2.51.65,1.33,1.17,1.76c.52.43,1.14.64,1.87.64.53,0,.99-.13,1.39-.39.4-.26.71-.56.94-.91v-2.46c0-.28-.05-.48-.16-.6s-.34-.21-.71-.26c-.36-.05-.96-.08-1.79-.08v-.27h4.11v.27c-.25,0-.42.02-.53.07-.11.05-.18.13-.22.26-.03.13-.05.33-.05.61v2.51c-.36.55-.8.97-1.33,1.25s-1.11.43-1.74.43c-.88,0-1.63-.23-2.25-.69Z"/>
  <path class="uuid-3a82b9d6-e660-4109-b291-9d7163bce1ad" d="M47.46,22.47h1.13v1.13h-1.13v-1.13ZM48.38,15.5c-.11,1.72-.17,3.6-.19,5.63h-.31c-.02-1.88-.08-3.76-.2-5.64-.06-.93-.09-1.62-.09-2.08h.87c0,.32-.03,1.02-.08,2.09Z"/>
  <path class="uuid-3a82b9d6-e660-4109-b291-9d7163bce1ad" d="M51.52,17.95c-.08-.09-.11-.21-.11-.36,0-.14.02-.27.06-.4.04-.13.06-.2.07-.23.07-.21.12-.4.16-.57s.06-.38.07-.64c-.36.23-.68.5-.95.8l-.17.17c-.09.09-.2.17-.31.24-.09.06-.19.09-.29.09-.14,0-.26-.07-.36-.2-.03-.07-.05-.14-.05-.22,0-.15.09-.29.28-.41.14-.08.33-.14.57-.18.21-.04.41-.09.58-.15.17-.06.38-.15.62-.27-.38-.21-.78-.36-1.2-.45-.27-.07-.46-.13-.57-.19-.19-.11-.28-.24-.28-.39,0-.08.02-.16.05-.22.09-.14.21-.22.36-.22.1,0,.2.03.29.09.13.08.28.22.47.42.14.17.28.32.42.44.14.12.32.25.55.39,0-.27-.03-.5-.07-.67s-.1-.37-.17-.59c-.03-.1-.06-.2-.09-.31-.03-.1-.04-.2-.04-.29,0-.15.04-.27.11-.36.08-.09.18-.13.32-.13.13,0,.23.04.31.13.08.09.11.21.11.36,0,.18-.04.38-.13.61-.07.21-.12.41-.15.59-.03.18-.06.4-.06.66.22-.14.4-.27.53-.39.13-.12.27-.27.43-.44.17-.2.32-.33.46-.42.09-.06.19-.09.29-.09.14,0,.26.07.36.22.03.06.05.13.05.22,0,.15-.09.28-.28.39-.11.06-.3.12-.57.19-.42.08-.81.23-1.2.45.24.13.44.22.62.27s.37.1.58.15c.25.04.44.1.57.18.19.12.28.25.28.41,0,.08-.02.15-.05.22-.09.14-.21.2-.36.2-.1,0-.2-.03-.29-.09-.12-.08-.27-.21-.46-.41-.14-.15-.27-.29-.41-.41-.14-.12-.32-.25-.55-.39.02.41.09.81.22,1.21.08.24.13.45.13.62,0,.15-.04.27-.11.36-.08.09-.18.13-.31.13-.14,0-.24-.04-.32-.13Z"/>
  <path class="uuid-3a82b9d6-e660-4109-b291-9d7163bce1ad" d="M16.09,34.57c-.32-.16-.61-.37-.87-.64-.12-.12-.21-.18-.27-.18s-.11.09-.15.27l-.11.6h-.27v-3.67h.28c.03.68.15,1.28.36,1.8s.5.93.85,1.21c.35.28.74.43,1.18.43.38,0,.7-.09.97-.28s.46-.42.58-.71c.12-.29.18-.59.18-.9,0-.41-.09-.78-.28-1.11-.19-.33-.42-.63-.7-.88s-.65-.57-1.12-.92c-.49-.37-.89-.7-1.18-.97-.3-.28-.55-.59-.74-.96-.2-.36-.3-.77-.3-1.22,0-.66.21-1.2.63-1.6.42-.41.97-.61,1.64-.61.32,0,.61.05.87.15.25.1.5.27.74.5.08.08.15.11.23.11.11,0,.17-.08.18-.24l.04-.4h.27l.18,3.31h-.27c-.09-.92-.32-1.66-.69-2.2-.37-.54-.88-.81-1.53-.81-.5,0-.9.16-1.18.48s-.43.72-.43,1.18c0,.36.08.7.25,1s.39.58.65.82c.26.25.62.53,1.06.87.53.4.95.74,1.26,1.03s.58.63.79,1.02c.21.39.32.84.32,1.33,0,.46-.1.87-.29,1.24-.2.37-.47.66-.83.87-.36.21-.78.32-1.25.32-.35,0-.68-.08-1.01-.24Z"/>
  <path class="uuid-3a82b9d6-e660-4109-b291-9d7163bce1ad" d="M21.25,25.02c-.06-.12-.17-.21-.35-.26-.18-.05-.48-.08-.89-.08v-.27h3.35v.27c-.42,0-.71.03-.89.08-.18.05-.3.14-.35.26-.06.12-.08.32-.08.6v7.77c0,.28.03.48.08.6.05.12.17.21.35.26.18.05.48.08.89.08v.27h-3.35v-.27c.42,0,.71-.03.89-.08s.29-.14.35-.26c.05-.12.08-.33.08-.6v-7.77c0-.28-.03-.48-.08-.6Z"/>
  <path class="uuid-3a82b9d6-e660-4109-b291-9d7163bce1ad" d="M30.75,25.02c-.06-.12-.17-.21-.35-.26-.18-.05-.48-.08-.89-.08v-.27h3.07v.27c-.42,0-.71.03-.89.08-.18.05-.29.14-.35.26s-.08.32-.08.6v9.17h-.37l-5.27-8.63v7.23c0,.28.03.48.08.6s.17.21.36.26.48.08.9.08v.27h-3.08v-.27c.42,0,.71-.03.89-.08s.29-.14.35-.26c.05-.12.08-.33.08-.6v-7.94c-.22-.32-.41-.53-.58-.62-.17-.09-.42-.14-.75-.14v-.27h1.52l5.42,8.94h.03v-7.73c0-.28-.03-.48-.08-.6Z"/>
  <path class="uuid-3a82b9d6-e660-4109-b291-9d7163bce1ad" d="M33.42,26.83c.31-.81.75-1.45,1.33-1.92s1.25-.7,2.01-.7,1.44.25,1.96.76c.08.08.15.13.22.13.09,0,.15-.08.17-.24l.04-.52h.27l.19,3.53h-.27c-.17-1.07-.46-1.88-.87-2.42-.41-.54-.96-.81-1.65-.81-.64,0-1.19.21-1.66.64s-.82,1.01-1.07,1.74c-.25.73-.37,1.56-.37,2.46s.12,1.73.37,2.47c.25.74.6,1.32,1.06,1.74.46.42,1,.64,1.62.64.79,0,1.43-.35,1.93-1.06.5-.7.82-1.64.96-2.8h.32c-.14,1.34-.49,2.4-1.05,3.17-.56.77-1.33,1.16-2.31,1.16-.76,0-1.41-.23-1.96-.69-.55-.46-.97-1.09-1.27-1.9-.29-.8-.44-1.7-.44-2.68s.15-1.89.46-2.71Z"/>
  <path class="uuid-3a82b9d6-e660-4109-b291-9d7163bce1ad" d="M46.58,24.66l.19,2.16-.32.03c-.06-.62-.13-1.06-.21-1.34-.08-.27-.2-.45-.36-.53-.16-.08-.4-.13-.73-.13h-2.2c-.36,0-.53.18-.53.53v3.69h1.97c.28,0,.48-.03.6-.09s.21-.19.25-.39c.05-.2.07-.52.07-.97h.27v3.28h-.27c0-.45-.02-.77-.07-.97-.05-.2-.13-.33-.25-.39-.12-.06-.32-.09-.6-.09h-1.97v3.98c0,.3.04.49.11.58.08.09.24.14.48.14h2.14c.34,0,.6-.05.79-.15s.35-.3.5-.6c.15-.3.32-.79.52-1.46l.32.09-.69,2.32-.06.23h-6.14v-.27c.42,0,.71-.03.89-.08s.29-.14.35-.26c.05-.12.08-.33.08-.6v-7.77c0-.28-.03-.48-.08-.6-.06-.12-.17-.21-.35-.26-.18-.05-.48-.08-.89-.08v-.27h6.16l.03.24Z"/>
  <path class="uuid-3a82b9d6-e660-4109-b291-9d7163bce1ad" d="M16.51,44.59l3.11-9.18h2.28v.27c-.42,0-.71.03-.89.08s-.29.14-.35.26c-.06.12-.08.33-.08.6v7.77c0,.28.03.48.08.6.06.12.17.21.35.26s.48.08.89.08v.27h-3.35v-.27c.42,0,.71-.03.89-.08s.29-.14.35-.26.08-.33.08-.6v-8.24h-.04l-3.31,9.7h-.34l-3.22-9.57h-.04v8.11c0,.28.03.48.08.6s.17.21.35.26.48.08.89.08v.27h-3.08v-.27c.42,0,.71-.03.89-.08s.29-.14.35-.26c.05-.12.08-.33.08-.6v-7.77c0-.28-.03-.48-.08-.6-.06-.12-.17-.21-.35-.26s-.48-.08-.89-.08v-.27h2.29l3.04,9.18h.01Z"/>
  <path class="uuid-3a82b9d6-e660-4109-b291-9d7163bce1ad" d="M27.75,44.59l3.11-9.18h2.28v.27c-.42,0-.71.03-.89.08s-.29.14-.35.26c-.06.12-.08.33-.08.6v7.77c0,.28.03.48.08.6.06.12.17.21.35.26s.48.08.89.08v.27h-3.35v-.27c.42,0,.71-.03.89-.08s.29-.14.35-.26.08-.33.08-.6v-8.24h-.04l-3.31,9.7h-.34l-3.22-9.57h-.04v8.11c0,.28.03.48.08.6s.17.21.35.26.48.08.89.08v.27h-3.08v-.27c.42,0,.71-.03.89-.08s.29-.14.35-.26c.05-.12.08-.33.08-.6v-7.77c0-.28-.03-.48-.08-.6-.06-.12-.17-.21-.35-.26s-.48-.08-.89-.08v-.27h2.29l3.04,9.18h.01Z"/>
  <path class="uuid-3a82b9d6-e660-4109-b291-9d7163bce1ad" d="M38.91,45.33c.39,0,.66-.01.8-.04.14-.03.22-.09.22-.18,0-.06-.03-.15-.1-.28-.07-.13-.12-.22-.15-.28l-2.14-3.82-2.11,3.79c-.12.22-.18.39-.18.5,0,.12.07.2.22.25.15.05.39.07.72.07v.27h-2.67v-.27c.25,0,.45-.03.61-.08s.32-.15.46-.3.31-.37.48-.67l2.24-4-2.14-3.82c-.19-.33-.37-.54-.55-.64s-.46-.15-.83-.15v-.27h2.99v.27c-.39,0-.66.01-.8.04-.14.03-.22.09-.22.18,0,.06.03.15.1.28s.12.22.15.28l1.81,3.22,1.92-3.22c.14-.27.22-.45.22-.54,0-.1-.07-.17-.21-.2-.14-.03-.39-.05-.76-.05v-.27h2.64v.27c-.38,0-.67.05-.86.14-.19.09-.38.31-.57.64l-2.15,3.65,2.48,4.43c.19.33.37.55.55.64.18.1.46.15.83.15v.27h-3v-.27Z"/>
  <path class="uuid-3a82b9d6-e660-4109-b291-9d7163bce1ad" d="M46.37,44.43l2.46-7.86c.08-.25.13-.43.13-.53,0-.14-.08-.24-.23-.29-.15-.05-.44-.07-.87-.07v-.27h2.58v.27c-.25,0-.45.02-.59.06-.14.04-.25.12-.34.25-.09.12-.17.32-.25.58l-2.9,9.23h-.34l-2.93-9.23c-.08-.26-.17-.46-.26-.58-.09-.12-.2-.21-.34-.25-.14-.04-.33-.06-.59-.06v-.27h2.93v.27c-.42,0-.71.02-.87.07-.15.05-.23.14-.23.29,0,.1.04.28.13.53l2.46,7.86h.04Z"/>
</svg>
